# xmcd
#
# Track frame offsets:
#	150
#	14122
#	33560
#	45505
#	62370
#	95167
#	113352
#	125820
#	150882
#	171162
#	189505
#
# Disc length: 2799 seconds
#
# Revision: 3
# Processed by: cddbd v1.5.2PL0 Copyright (c) Steve Scherf et al.
# Submitted via: audiograbber 1.83.01
#
DISCID=890aed0b
DTITLE=Alvin Youngblood Hart - Territory
DYEAR=1998
DGENRE=Blues
TTITLE0=Tallacatcha
TTITLE1=Illinois Blues
TTITLE2=Ouachita Run
TTITLE3=Sallie, Queen of the Pines
TTITLE4=Countryside
TTITLE5=Ice Rose
TTITLE6=Dancing with Tears in my Eyes
TTITLE7=Mama don't allow
TTITLE8=John Hardy
TTITLE9=Just about to go
TTITLE10=Underway at seven
EXTD=
EXTT0=
EXTT1=
EXTT2=
EXTT3=
EXTT4=
EXTT5=
EXTT6=
EXTT7=
EXTT8=
EXTT9=
EXTT10=
PLAYORDER=
